<svg width="104" height="18" viewBox="0 0 104 18" fill="none" xmlns="http://www.w3.org/2000/svg">
<path d="M0.208 3.416V1.704H3.824V13H1.904V3.416H0.208Z" fill="#152C5B"/>
<path d="M13.9585 4.152C14.8438 4.152 15.5958 4.38133 16.2145 4.84C16.8438 5.29867 17.2705 5.90667 17.4945 6.664V1.16H18.6145V13H17.4945V10.6C17.2705 11.3573 16.8438 11.9653 16.2145 12.424C15.5958 12.8827 14.8438 13.112 13.9585 13.112C13.1692 13.112 12.4598 12.9307 11.8305 12.568C11.2118 12.2053 10.7265 11.688 10.3745 11.016C10.0332 10.3333 9.8625 9.53867 9.8625 8.632C9.8625 7.71467 10.0332 6.92 10.3745 6.248C10.7265 5.56533 11.2118 5.048 11.8305 4.696C12.4492 4.33333 13.1585 4.152 13.9585 4.152ZM14.2465 5.144C13.2652 5.144 12.4758 5.45867 11.8785 6.088C11.2918 6.70667 10.9985 7.55467 10.9985 8.632C10.9985 9.70933 11.2918 10.5627 11.8785 11.192C12.4758 11.8107 13.2652 12.12 14.2465 12.12C14.8652 12.12 15.4198 11.976 15.9105 11.688C16.4118 11.4 16.8012 10.9947 17.0785 10.472C17.3665 9.93867 17.5105 9.32533 17.5105 8.632C17.5105 7.93867 17.3665 7.33067 17.0785 6.808C16.8012 6.27467 16.4118 5.864 15.9105 5.576C15.4198 5.288 14.8652 5.144 14.2465 5.144ZM20.7881 1.672C20.7881 1.43733 20.8628 1.25067 21.0121 1.112C21.1721 0.973333 21.3748 0.903999 21.6201 0.903999C21.8655 0.903999 22.0628 0.973333 22.2121 1.112C22.3615 1.25067 22.4361 1.43733 22.4361 1.672C22.4361 1.896 22.3615 2.07733 22.2121 2.216C22.0628 2.35467 21.8655 2.424 21.6201 2.424C21.3748 2.424 21.1721 2.35467 21.0121 2.216C20.8628 2.07733 20.7881 1.896 20.7881 1.672ZM22.1801 4.264V13H21.0441V4.264H22.1801ZM28.9746 4.104C29.988 4.104 30.8093 4.42933 31.4386 5.08C32.0786 5.72 32.3986 6.664 32.3986 7.912V13H31.2946V7.992C31.2946 7.04267 31.0546 6.31733 30.5746 5.816C30.0946 5.304 29.4386 5.048 28.6066 5.048C27.732 5.048 27.0333 5.33067 26.5106 5.896C25.9986 6.45067 25.7426 7.272 25.7426 8.36V13H24.6066V4.264H25.7426V6.408C25.9666 5.66133 26.372 5.09067 26.9586 4.696C27.5453 4.30133 28.2173 4.104 28.9746 4.104ZM34.5069 1.672C34.5069 1.43733 34.5815 1.25067 34.7309 1.112C34.8909 0.973333 35.0935 0.903999 35.3389 0.903999C35.5842 0.903999 35.7815 0.973333 35.9309 1.112C36.0802 1.25067 36.1549 1.43733 36.1549 1.672C36.1549 1.896 36.0802 2.07733 35.9309 2.216C35.7815 2.35467 35.5842 2.424 35.3389 2.424C35.0935 2.424 34.8909 2.35467 34.7309 2.216C34.5815 2.07733 34.5069 1.896 34.5069 1.672ZM35.8989 4.264V13H34.7629V4.264H35.8989ZM42.6934 4.104C43.7067 4.104 44.528 4.42933 45.1574 5.08C45.7974 5.72 46.1174 6.664 46.1174 7.912V13H45.0134V7.992C45.0134 7.04267 44.7734 6.31733 44.2934 5.816C43.8134 5.304 43.1574 5.048 42.3254 5.048C41.4507 5.048 40.752 5.33067 40.2294 5.896C39.7174 6.45067 39.4614 7.272 39.4614 8.36V13H38.3254V4.264H39.4614V6.408C39.6854 5.66133 40.0907 5.09067 40.6774 4.696C41.264 4.30133 41.936 4.104 42.6934 4.104ZM52.1616 4.152C53.047 4.152 53.799 4.38133 54.4176 4.84C55.047 5.29867 55.479 5.90667 55.7136 6.664V4.264H56.8176V13.208C56.8176 14.0187 56.647 14.728 56.3056 15.336C55.9643 15.9547 55.4896 16.4293 54.8816 16.76C54.2736 17.1013 53.5803 17.272 52.8016 17.272C51.6603 17.272 50.7216 16.9947 49.9856 16.44C49.2603 15.896 48.7856 15.1547 48.5616 14.216H49.6816C49.8736 14.856 50.2256 15.3627 50.7376 15.736C51.2603 16.1093 51.927 16.296 52.7376 16.296C53.2923 16.296 53.7936 16.1733 54.2416 15.928C54.7003 15.6933 55.0576 15.3413 55.3136 14.872C55.5803 14.4027 55.7136 13.848 55.7136 13.208V10.6C55.479 11.3573 55.047 11.9653 54.4176 12.424C53.799 12.8827 53.047 13.112 52.1616 13.112C51.3723 13.112 50.663 12.9307 50.0336 12.568C49.415 12.2053 48.9296 11.688 48.5776 11.016C48.2363 10.3333 48.0656 9.53867 48.0656 8.632C48.0656 7.71467 48.2363 6.92 48.5776 6.248C48.9296 5.56533 49.415 5.048 50.0336 4.696C50.6523 4.33333 51.3616 4.152 52.1616 4.152ZM52.4496 5.144C51.4683 5.144 50.679 5.45867 50.0816 6.088C49.495 6.70667 49.2016 7.55467 49.2016 8.632C49.2016 9.70933 49.495 10.5627 50.0816 11.192C50.679 11.8107 51.4683 12.12 52.4496 12.12C53.0683 12.12 53.623 11.976 54.1136 11.688C54.615 11.4 55.0043 10.9947 55.2816 10.472C55.5696 9.93867 55.7136 9.32533 55.7136 8.632C55.7136 7.93867 55.5696 7.33067 55.2816 6.808C55.0043 6.27467 54.615 5.864 54.1136 5.576C53.623 5.288 53.0683 5.144 52.4496 5.144ZM64.5395 6.072C64.7955 5.44267 65.2062 4.95733 65.7715 4.616C66.3368 4.27467 67.0248 4.104 67.8355 4.104V5.32H67.4675C66.6248 5.32 65.9262 5.54933 65.3715 6.008C64.8168 6.456 64.5395 7.192 64.5395 8.216V13H63.4035V4.264H64.5395V6.072ZM73.2774 4.152C74.1094 4.152 74.8507 4.33333 75.5014 4.696C76.1627 5.048 76.68 5.56533 77.0534 6.248C77.4267 6.92 77.6134 7.71467 77.6134 8.632C77.6134 9.54933 77.4267 10.344 77.0534 11.016C76.68 11.688 76.1627 12.2053 75.5014 12.568C74.8507 12.9307 74.1094 13.112 73.2774 13.112C72.4454 13.112 71.6987 12.9307 71.0374 12.568C70.376 12.2053 69.8534 11.688 69.4694 11.016C69.096 10.3333 68.9094 9.53867 68.9094 8.632C68.9094 7.71467 69.096 6.92 69.4694 6.248C69.8534 5.56533 70.376 5.048 71.0374 4.696C71.6987 4.33333 72.4454 4.152 73.2774 4.152ZM73.2774 5.128C72.7014 5.128 72.168 5.256 71.6774 5.512C71.1867 5.768 70.792 6.16267 70.4934 6.696C70.1947 7.21867 70.0454 7.864 70.0454 8.632C70.0454 9.4 70.1947 10.0453 70.4934 10.568C70.792 11.0907 71.1867 11.48 71.6774 11.736C72.168 11.992 72.7014 12.12 73.2774 12.12C73.8427 12.12 74.3654 11.992 74.8454 11.736C75.336 11.48 75.7307 11.0907 76.0294 10.568C76.328 10.0453 76.4774 9.4 76.4774 8.632C76.4774 7.864 76.328 7.21867 76.0294 6.696C75.7307 6.16267 75.336 5.768 74.8454 5.512C74.3654 5.256 73.8427 5.128 73.2774 5.128ZM83.5743 4.152C84.4063 4.152 85.1476 4.33333 85.7983 4.696C86.4596 5.048 86.9769 5.56533 87.3503 6.248C87.7236 6.92 87.9103 7.71467 87.9103 8.632C87.9103 9.54933 87.7236 10.344 87.3503 11.016C86.9769 11.688 86.4596 12.2053 85.7983 12.568C85.1476 12.9307 84.4063 13.112 83.5743 13.112C82.7423 13.112 81.9956 12.9307 81.3343 12.568C80.6729 12.2053 80.1503 11.688 79.7663 11.016C79.3929 10.3333 79.2063 9.53867 79.2063 8.632C79.2063 7.71467 79.3929 6.92 79.7663 6.248C80.1503 5.56533 80.6729 5.048 81.3343 4.696C81.9956 4.33333 82.7423 4.152 83.5743 4.152ZM83.5743 5.128C82.9983 5.128 82.4649 5.256 81.9743 5.512C81.4836 5.768 81.0889 6.16267 80.7903 6.696C80.4916 7.21867 80.3423 7.864 80.3423 8.632C80.3423 9.4 80.4916 10.0453 80.7903 10.568C81.0889 11.0907 81.4836 11.48 81.9743 11.736C82.4649 11.992 82.9983 12.12 83.5743 12.12C84.1396 12.12 84.6623 11.992 85.1423 11.736C85.6329 11.48 86.0276 11.0907 86.3263 10.568C86.6249 10.0453 86.7743 9.4 86.7743 8.632C86.7743 7.864 86.6249 7.21867 86.3263 6.696C86.0276 6.16267 85.6329 5.768 85.1423 5.512C84.6623 5.256 84.1396 5.128 83.5743 5.128ZM100.527 4.104C101.53 4.104 102.34 4.42933 102.959 5.08C103.588 5.72 103.903 6.664 103.903 7.912V13H102.783V7.992C102.783 7.05333 102.554 6.33333 102.095 5.832C101.647 5.33067 101.028 5.08 100.239 5.08C99.3965 5.08 98.7245 5.35733 98.2231 5.912C97.7218 6.46667 97.4711 7.28267 97.4711 8.36V13H96.3671V7.992C96.3671 7.05333 96.1378 6.33333 95.6791 5.832C95.2311 5.33067 94.6125 5.08 93.8231 5.08C92.9805 5.08 92.3085 5.35733 91.8071 5.912C91.3058 6.46667 91.0551 7.28267 91.0551 8.36V13H89.9191V4.264H91.0551V6.344C91.2685 5.608 91.6525 5.05333 92.2071 4.68C92.7725 4.296 93.4231 4.104 94.1591 4.104C94.9271 4.104 95.5885 4.30667 96.1431 4.712C96.6978 5.11733 97.0818 5.71467 97.2951 6.504C97.5298 5.72533 97.9405 5.13333 98.5271 4.728C99.1138 4.312 99.7805 4.104 100.527 4.104Z" fill="#B0B0B0"/>
</svg>
