<svg width="96" height="18" viewBox="0 0 96 18" fill="none" xmlns="http://www.w3.org/2000/svg">
<path d="M0.208 3.416V1.704H3.824V13H1.904V3.416H0.208Z" fill="#152C5B"/>
<path d="M11.4145 1.16V13H10.2785V1.16H11.4145ZM13.585 1.672C13.585 1.43733 13.6597 1.25067 13.809 1.112C13.969 0.973333 14.1717 0.903999 14.417 0.903999C14.6623 0.903999 14.8597 0.973333 15.009 1.112C15.1583 1.25067 15.233 1.43733 15.233 1.672C15.233 1.896 15.1583 2.07733 15.009 2.216C14.8597 2.35467 14.6623 2.424 14.417 2.424C14.1717 2.424 13.969 2.35467 13.809 2.216C13.6597 2.07733 13.585 1.896 13.585 1.672ZM14.977 4.264V13H13.841V4.264H14.977ZM20.6355 11.736L23.5635 4.264H24.7795L21.2595 13H19.9795L16.4595 4.264H17.6755L20.6355 11.736ZM26.0069 1.672C26.0069 1.43733 26.0815 1.25067 26.2309 1.112C26.3909 0.973333 26.5935 0.903999 26.8389 0.903999C27.0842 0.903999 27.2815 0.973333 27.4309 1.112C27.5802 1.25067 27.6549 1.43733 27.6549 1.672C27.6549 1.896 27.5802 2.07733 27.4309 2.216C27.2815 2.35467 27.0842 2.424 26.8389 2.424C26.5935 2.424 26.3909 2.35467 26.2309 2.216C26.0815 2.07733 26.0069 1.896 26.0069 1.672ZM27.3989 4.264V13H26.2629V4.264H27.3989ZM34.1934 4.104C35.2067 4.104 36.028 4.42933 36.6574 5.08C37.2974 5.72 37.6174 6.664 37.6174 7.912V13H36.5134V7.992C36.5134 7.04267 36.2734 6.31733 35.7934 5.816C35.3134 5.304 34.6574 5.048 33.8254 5.048C32.9507 5.048 32.252 5.33067 31.7294 5.896C31.2174 6.45067 30.9614 7.272 30.9614 8.36V13H29.8254V4.264H30.9614V6.408C31.1854 5.66133 31.5907 5.09067 32.1774 4.696C32.764 4.30133 33.436 4.104 34.1934 4.104ZM43.6616 4.152C44.547 4.152 45.299 4.38133 45.9176 4.84C46.547 5.29867 46.979 5.90667 47.2136 6.664V4.264H48.3176V13.208C48.3176 14.0187 48.147 14.728 47.8056 15.336C47.4643 15.9547 46.9896 16.4293 46.3816 16.76C45.7736 17.1013 45.0803 17.272 44.3016 17.272C43.1603 17.272 42.2216 16.9947 41.4856 16.44C40.7603 15.896 40.2856 15.1547 40.0616 14.216H41.1816C41.3736 14.856 41.7256 15.3627 42.2376 15.736C42.7603 16.1093 43.427 16.296 44.2376 16.296C44.7923 16.296 45.2936 16.1733 45.7416 15.928C46.2003 15.6933 46.5576 15.3413 46.8136 14.872C47.0803 14.4027 47.2136 13.848 47.2136 13.208V10.6C46.979 11.3573 46.547 11.9653 45.9176 12.424C45.299 12.8827 44.547 13.112 43.6616 13.112C42.8723 13.112 42.163 12.9307 41.5336 12.568C40.915 12.2053 40.4296 11.688 40.0776 11.016C39.7363 10.3333 39.5656 9.53867 39.5656 8.632C39.5656 7.71467 39.7363 6.92 40.0776 6.248C40.4296 5.56533 40.915 5.048 41.5336 4.696C42.1523 4.33333 42.8616 4.152 43.6616 4.152ZM43.9496 5.144C42.9683 5.144 42.179 5.45867 41.5816 6.088C40.995 6.70667 40.7016 7.55467 40.7016 8.632C40.7016 9.70933 40.995 10.5627 41.5816 11.192C42.179 11.8107 42.9683 12.12 43.9496 12.12C44.5683 12.12 45.123 11.976 45.6136 11.688C46.115 11.4 46.5043 10.9947 46.7816 10.472C47.0696 9.93867 47.2136 9.32533 47.2136 8.632C47.2136 7.93867 47.0696 7.33067 46.7816 6.808C46.5043 6.27467 46.115 5.864 45.6136 5.576C45.123 5.288 44.5683 5.144 43.9496 5.144ZM56.0395 6.072C56.2955 5.44267 56.7062 4.95733 57.2715 4.616C57.8368 4.27467 58.5248 4.104 59.3355 4.104V5.32H58.9675C58.1248 5.32 57.4262 5.54933 56.8715 6.008C56.3168 6.456 56.0395 7.192 56.0395 8.216V13H54.9035V4.264H56.0395V6.072ZM64.7774 4.152C65.6094 4.152 66.3507 4.33333 67.0014 4.696C67.6627 5.048 68.18 5.56533 68.5534 6.248C68.9267 6.92 69.1134 7.71467 69.1134 8.632C69.1134 9.54933 68.9267 10.344 68.5534 11.016C68.18 11.688 67.6627 12.2053 67.0014 12.568C66.3507 12.9307 65.6094 13.112 64.7774 13.112C63.9454 13.112 63.1987 12.9307 62.5374 12.568C61.876 12.2053 61.3534 11.688 60.9694 11.016C60.596 10.3333 60.4094 9.53867 60.4094 8.632C60.4094 7.71467 60.596 6.92 60.9694 6.248C61.3534 5.56533 61.876 5.048 62.5374 4.696C63.1987 4.33333 63.9454 4.152 64.7774 4.152ZM64.7774 5.128C64.2014 5.128 63.668 5.256 63.1774 5.512C62.6867 5.768 62.292 6.16267 61.9934 6.696C61.6947 7.21867 61.5454 7.864 61.5454 8.632C61.5454 9.4 61.6947 10.0453 61.9934 10.568C62.292 11.0907 62.6867 11.48 63.1774 11.736C63.668 11.992 64.2014 12.12 64.7774 12.12C65.3427 12.12 65.8654 11.992 66.3454 11.736C66.836 11.48 67.2307 11.0907 67.5294 10.568C67.828 10.0453 67.9774 9.4 67.9774 8.632C67.9774 7.864 67.828 7.21867 67.5294 6.696C67.2307 6.16267 66.836 5.768 66.3454 5.512C65.8654 5.256 65.3427 5.128 64.7774 5.128ZM75.0743 4.152C75.9063 4.152 76.6476 4.33333 77.2983 4.696C77.9596 5.048 78.4769 5.56533 78.8503 6.248C79.2236 6.92 79.4103 7.71467 79.4103 8.632C79.4103 9.54933 79.2236 10.344 78.8503 11.016C78.4769 11.688 77.9596 12.2053 77.2983 12.568C76.6476 12.9307 75.9063 13.112 75.0743 13.112C74.2423 13.112 73.4956 12.9307 72.8343 12.568C72.1729 12.2053 71.6503 11.688 71.2663 11.016C70.8929 10.3333 70.7063 9.53867 70.7063 8.632C70.7063 7.71467 70.8929 6.92 71.2663 6.248C71.6503 5.56533 72.1729 5.048 72.8343 4.696C73.4956 4.33333 74.2423 4.152 75.0743 4.152ZM75.0743 5.128C74.4983 5.128 73.9649 5.256 73.4743 5.512C72.9836 5.768 72.5889 6.16267 72.2903 6.696C71.9916 7.21867 71.8423 7.864 71.8423 8.632C71.8423 9.4 71.9916 10.0453 72.2903 10.568C72.5889 11.0907 72.9836 11.48 73.4743 11.736C73.9649 11.992 74.4983 12.12 75.0743 12.12C75.6396 12.12 76.1623 11.992 76.6423 11.736C77.1329 11.48 77.5276 11.0907 77.8263 10.568C78.1249 10.0453 78.2743 9.4 78.2743 8.632C78.2743 7.864 78.1249 7.21867 77.8263 6.696C77.5276 6.16267 77.1329 5.768 76.6423 5.512C76.1623 5.256 75.6396 5.128 75.0743 5.128ZM92.0271 4.104C93.0298 4.104 93.8405 4.42933 94.4591 5.08C95.0885 5.72 95.4031 6.664 95.4031 7.912V13H94.2831V7.992C94.2831 7.05333 94.0538 6.33333 93.5951 5.832C93.1471 5.33067 92.5285 5.08 91.7391 5.08C90.8965 5.08 90.2245 5.35733 89.7231 5.912C89.2218 6.46667 88.9711 7.28267 88.9711 8.36V13H87.8671V7.992C87.8671 7.05333 87.6378 6.33333 87.1791 5.832C86.7311 5.33067 86.1125 5.08 85.3231 5.08C84.4805 5.08 83.8085 5.35733 83.3071 5.912C82.8058 6.46667 82.5551 7.28267 82.5551 8.36V13H81.4191V4.264H82.5551V6.344C82.7685 5.608 83.1525 5.05333 83.7071 4.68C84.2725 4.296 84.9231 4.104 85.6591 4.104C86.4271 4.104 87.0885 4.30667 87.6431 4.712C88.1978 5.11733 88.5818 5.71467 88.7951 6.504C89.0298 5.72533 89.4405 5.13333 90.0271 4.728C90.6138 4.312 91.2805 4.104 92.0271 4.104Z" fill="#B0B0B0"/>
</svg>
