<svg width="88" height="18" viewBox="0 0 88 18" fill="none" xmlns="http://www.w3.org/2000/svg">
<path d="M0.64 11.576C2.368 10.392 3.74933 9.23467 4.784 8.104C5.82933 6.96267 6.352 5.90667 6.352 4.936C6.352 4.36 6.208 3.90133 5.92 3.56C5.64267 3.21867 5.18933 3.048 4.56 3.048C3.90933 3.048 3.41867 3.26133 3.088 3.688C2.75733 4.104 2.57067 4.70133 2.528 5.48H0.752C0.826667 4.18933 1.22133 3.20267 1.936 2.52C2.66133 1.83733 3.584 1.496 4.704 1.496C5.80267 1.496 6.66133 1.78933 7.28 2.376C7.90933 2.952 8.224 3.752 8.224 4.776C8.224 5.59733 7.968 6.42933 7.456 7.272C6.95467 8.11467 6.31467 8.89333 5.536 9.608C4.75733 10.312 3.952 10.92 3.12 11.432H8.48V12.92H0.64V11.576Z" fill="#152C5B"/>
<path d="M15.5864 6.072C15.8424 5.44267 16.253 4.95733 16.8184 4.616C17.3837 4.27467 18.0717 4.104 18.8824 4.104V5.32H18.5144C17.6717 5.32 16.973 5.54933 16.4184 6.008C15.8637 6.456 15.5864 7.192 15.5864 8.216V13H14.4504V4.264H15.5864V6.072ZM24.1803 12.184C24.9696 12.184 25.6309 11.9867 26.1643 11.592C26.6976 11.1973 27.0176 10.664 27.1243 9.992H28.3083C28.1483 10.92 27.7056 11.672 26.9803 12.248C26.2549 12.824 25.3376 13.112 24.2283 13.112C23.3963 13.112 22.6549 12.936 22.0043 12.584C21.3643 12.2213 20.8629 11.704 20.5003 11.032C20.1376 10.3493 19.9563 9.54933 19.9563 8.632C19.9563 7.71467 20.1376 6.92 20.5003 6.248C20.8629 5.56533 21.3643 5.048 22.0043 4.696C22.6549 4.33333 23.3963 4.152 24.2283 4.152C25.0816 4.152 25.8176 4.33333 26.4363 4.696C27.0656 5.048 27.5403 5.52267 27.8603 6.12C28.1909 6.71733 28.3563 7.368 28.3563 8.072C28.3563 8.37067 28.3349 8.64267 28.2923 8.888H21.0603C21.0709 9.624 21.2203 10.2427 21.5082 10.744C21.8069 11.2347 22.1909 11.5973 22.6603 11.832C23.1296 12.0667 23.6363 12.184 24.1803 12.184ZM24.2283 5.064C23.6629 5.064 23.1456 5.18133 22.6763 5.416C22.2069 5.65067 21.8229 6.01333 21.5243 6.504C21.2363 6.984 21.0816 7.58667 21.0603 8.312H27.2362C27.2789 7.59733 27.1616 6.99467 26.8843 6.504C26.6069 6.01333 26.2336 5.65067 25.7643 5.416C25.2949 5.18133 24.7829 5.064 24.2283 5.064ZM34.0523 1.944C33.2416 1.93333 32.6709 2.08267 32.3403 2.392C32.0203 2.69067 31.8603 3.19733 31.8603 3.912V4.264H34.0523V5.256H31.8603V13H30.7403V5.256H29.4443V4.264H30.7403V3.832C30.7403 2.85067 31.0069 2.11467 31.5403 1.624C32.0736 1.13333 32.9109 0.909333 34.0523 0.952V1.944ZM35.4756 1.672C35.4756 1.43733 35.5503 1.25067 35.6996 1.112C35.8596 0.973333 36.0623 0.903999 36.3076 0.903999C36.553 0.903999 36.7503 0.973333 36.8996 1.112C37.049 1.25067 37.1236 1.43733 37.1236 1.672C37.1236 1.896 37.049 2.07733 36.8996 2.216C36.7503 2.35467 36.553 2.424 36.3076 2.424C36.0623 2.424 35.8596 2.35467 35.6996 2.216C35.5503 2.07733 35.4756 1.896 35.4756 1.672ZM36.8676 4.264V13H35.7316V4.264H36.8676ZM42.9741 4.152C43.8595 4.152 44.6115 4.38133 45.2301 4.84C45.8595 5.29867 46.2915 5.90667 46.5261 6.664V4.264H47.6301V13.208C47.6301 14.0187 47.4595 14.728 47.1181 15.336C46.7768 15.9547 46.3021 16.4293 45.6941 16.76C45.0861 17.1013 44.3928 17.272 43.6141 17.272C42.4728 17.272 41.5341 16.9947 40.7981 16.44C40.0728 15.896 39.5981 15.1547 39.3741 14.216H40.4941C40.6861 14.856 41.0381 15.3627 41.5501 15.736C42.0728 16.1093 42.7395 16.296 43.5501 16.296C44.1048 16.296 44.6061 16.1733 45.0541 15.928C45.5128 15.6933 45.8701 15.3413 46.1261 14.872C46.3928 14.4027 46.5261 13.848 46.5261 13.208V10.6C46.2915 11.3573 45.8595 11.9653 45.2301 12.424C44.6115 12.8827 43.8595 13.112 42.9741 13.112C42.1848 13.112 41.4755 12.9307 40.8461 12.568C40.2275 12.2053 39.7421 11.688 39.3901 11.016C39.0488 10.3333 38.8781 9.53867 38.8781 8.632C38.8781 7.71467 39.0488 6.92 39.3901 6.248C39.7421 5.56533 40.2275 5.048 40.8461 4.696C41.4648 4.33333 42.1741 4.152 42.9741 4.152ZM43.2621 5.144C42.2808 5.144 41.4915 5.45867 40.8941 6.088C40.3075 6.70667 40.0141 7.55467 40.0141 8.632C40.0141 9.70933 40.3075 10.5627 40.8941 11.192C41.4915 11.8107 42.2808 12.12 43.2621 12.12C43.8808 12.12 44.4355 11.976 44.9261 11.688C45.4275 11.4 45.8168 10.9947 46.0941 10.472C46.3821 9.93867 46.5261 9.32533 46.5261 8.632C46.5261 7.93867 46.3821 7.33067 46.0941 6.808C45.8168 6.27467 45.4275 5.864 44.9261 5.576C44.4355 5.288 43.8808 5.144 43.2621 5.144ZM51.1957 6.072C51.4518 5.44267 51.8624 4.95733 52.4278 4.616C52.9931 4.27467 53.6811 4.104 54.4918 4.104V5.32H54.1238C53.2811 5.32 52.5824 5.54933 52.0278 6.008C51.4731 6.456 51.1957 7.192 51.1957 8.216V13H50.0598V4.264H51.1957V6.072ZM59.6616 4.152C60.547 4.152 61.299 4.38133 61.9176 4.84C62.547 5.29867 62.979 5.90667 63.2136 6.664V4.264H64.3176V13H63.2136V10.6C62.979 11.3573 62.547 11.9653 61.9176 12.424C61.299 12.8827 60.547 13.112 59.6616 13.112C58.8723 13.112 58.163 12.9307 57.5336 12.568C56.915 12.2053 56.4296 11.688 56.0776 11.016C55.7363 10.3333 55.5656 9.53867 55.5656 8.632C55.5656 7.71467 55.7363 6.92 56.0776 6.248C56.4296 5.56533 56.915 5.048 57.5336 4.696C58.1523 4.33333 58.8616 4.152 59.6616 4.152ZM59.9496 5.144C58.9683 5.144 58.179 5.45867 57.5816 6.088C56.995 6.70667 56.7016 7.55467 56.7016 8.632C56.7016 9.70933 56.995 10.5627 57.5816 11.192C58.179 11.8107 58.9683 12.12 59.9496 12.12C60.5683 12.12 61.123 11.976 61.6136 11.688C62.115 11.4 62.5043 10.9947 62.7816 10.472C63.0696 9.93867 63.2136 9.32533 63.2136 8.632C63.2136 7.93867 63.0696 7.33067 62.7816 6.808C62.5043 6.27467 62.115 5.864 61.6136 5.576C61.123 5.288 60.5683 5.144 59.9496 5.144ZM70.7153 12.008V13H69.6753C68.8326 13 68.2033 12.8027 67.7873 12.408C67.3713 12.0027 67.1633 11.3253 67.1633 10.376V5.24H65.8353V4.264H67.1633V2.056H68.2993V4.264H70.6993V5.24H68.2993V10.392C68.2993 11.0107 68.4113 11.4373 68.6353 11.672C68.8593 11.896 69.2539 12.008 69.8193 12.008H70.7153ZM76.5118 4.152C77.3438 4.152 78.0851 4.33333 78.7358 4.696C79.3971 5.048 79.9144 5.56533 80.2878 6.248C80.6611 6.92 80.8478 7.71467 80.8478 8.632C80.8478 9.54933 80.6611 10.344 80.2878 11.016C79.9144 11.688 79.3971 12.2053 78.7358 12.568C78.0851 12.9307 77.3438 13.112 76.5118 13.112C75.6798 13.112 74.9331 12.9307 74.2718 12.568C73.6104 12.2053 73.0878 11.688 72.7038 11.016C72.3304 10.3333 72.1438 9.53867 72.1438 8.632C72.1438 7.71467 72.3304 6.92 72.7038 6.248C73.0878 5.56533 73.6104 5.048 74.2718 4.696C74.9331 4.33333 75.6798 4.152 76.5118 4.152ZM76.5118 5.128C75.9358 5.128 75.4024 5.256 74.9118 5.512C74.4211 5.768 74.0264 6.16267 73.7278 6.696C73.4291 7.21867 73.2798 7.864 73.2798 8.632C73.2798 9.4 73.4291 10.0453 73.7278 10.568C74.0264 11.0907 74.4211 11.48 74.9118 11.736C75.4024 11.992 75.9358 12.12 76.5118 12.12C77.0771 12.12 77.5998 11.992 78.0798 11.736C78.5704 11.48 78.9651 11.0907 79.2638 10.568C79.5624 10.0453 79.7118 9.4 79.7118 8.632C79.7118 7.864 79.5624 7.21867 79.2638 6.696C78.9651 6.16267 78.5704 5.768 78.0798 5.512C77.5998 5.256 77.0771 5.128 76.5118 5.128ZM83.9926 6.072C84.2486 5.44267 84.6593 4.95733 85.2246 4.616C85.79 4.27467 86.478 4.104 87.2886 4.104V5.32H86.9206C86.078 5.32 85.3793 5.54933 84.8246 6.008C84.27 6.456 83.9926 7.192 83.9926 8.216V13H82.8566V4.264H83.9926V6.072Z" fill="#B0B0B0"/>
</svg>
