<svg width="93" height="13" viewBox="0 0 93 13" fill="none" xmlns="http://www.w3.org/2000/svg">
<path d="M4.8 0.351999C5.54667 0.351999 6.18667 0.485333 6.72 0.752C7.25333 1.008 7.65333 1.36533 7.92 1.824C8.19733 2.28267 8.336 2.79467 8.336 3.36C8.336 4.07467 8.13333 4.672 7.728 5.152C7.33333 5.62133 6.77333 5.904 6.048 6V6.08C6.82667 6.304 7.43467 6.64 7.872 7.088C8.32 7.52533 8.544 8.13333 8.544 8.912C8.544 9.86133 8.22933 10.6347 7.6 11.232C6.97067 11.8187 6.06933 12.112 4.896 12.112C3.69067 12.112 2.72 11.808 1.984 11.2C1.248 10.5813 0.826667 9.66933 0.72 8.464H2.528C2.592 9.104 2.82133 9.616 3.216 10C3.61067 10.3733 4.144 10.56 4.816 10.56C5.44533 10.56 5.92533 10.3947 6.256 10.064C6.59733 9.73333 6.768 9.30667 6.768 8.784C6.768 8.15467 6.52267 7.67467 6.032 7.344C5.552 7.01333 4.85333 6.848 3.936 6.848H3.504V5.344H3.936C5.67467 5.36533 6.544 4.77333 6.544 3.568C6.544 3.04533 6.384 2.63467 6.064 2.336C5.744 2.03733 5.30667 1.888 4.752 1.888C4.19733 1.888 3.73333 2.05867 3.36 2.4C2.98667 2.73067 2.76267 3.216 2.688 3.856H0.896C0.970667 2.74667 1.344 1.888 2.016 1.28C2.688 0.661333 3.616 0.351999 4.8 0.351999Z" fill="#152C5B"/>
<path d="M19.5443 3.152C20.3443 3.152 21.0483 3.33333 21.6562 3.696C22.2749 4.048 22.7549 4.56533 23.0963 5.248C23.4483 5.92 23.6243 6.71467 23.6243 7.632C23.6243 8.53867 23.4483 9.33333 23.0963 10.016C22.7549 10.688 22.2749 11.2053 21.6562 11.568C21.0376 11.9307 20.3336 12.112 19.5443 12.112C18.6483 12.112 17.8909 11.8827 17.2723 11.424C16.6536 10.9653 16.2269 10.3573 15.9923 9.6V12H14.8723V0.16H15.9923V5.664C16.2269 4.90667 16.6536 4.29867 17.2723 3.84C17.8909 3.38133 18.6483 3.152 19.5443 3.152ZM19.2403 4.144C18.6216 4.144 18.0616 4.288 17.5603 4.576C17.0696 4.864 16.6856 5.27467 16.4083 5.808C16.1309 6.33067 15.9923 6.93867 15.9923 7.632C15.9923 8.32533 16.1309 8.93867 16.4083 9.472C16.6856 9.99467 17.0696 10.4 17.5603 10.688C18.0616 10.976 18.6216 11.12 19.2403 11.12C20.2323 11.12 21.0216 10.8107 21.6083 10.192C22.1949 9.56267 22.4883 8.70933 22.4883 7.632C22.4883 6.55467 22.1949 5.70667 21.6083 5.088C21.0216 4.45867 20.2323 4.144 19.2403 4.144ZM29.3179 3.152C30.2032 3.152 30.9552 3.38133 31.5739 3.84C32.2032 4.29867 32.6352 4.90667 32.8699 5.664V3.264H33.9739V12H32.8699V9.6C32.6352 10.3573 32.2032 10.9653 31.5739 11.424C30.9552 11.8827 30.2032 12.112 29.3179 12.112C28.5285 12.112 27.8192 11.9307 27.1899 11.568C26.5712 11.2053 26.0859 10.688 25.7339 10.016C25.3925 9.33333 25.2219 8.53867 25.2219 7.632C25.2219 6.71467 25.3925 5.92 25.7339 5.248C26.0859 4.56533 26.5712 4.048 27.1899 3.696C27.8085 3.33333 28.5179 3.152 29.3179 3.152ZM29.6059 4.144C28.6245 4.144 27.8352 4.45867 27.2379 5.088C26.6512 5.70667 26.3579 6.55467 26.3579 7.632C26.3579 8.70933 26.6512 9.56267 27.2379 10.192C27.8352 10.8107 28.6245 11.12 29.6059 11.12C30.2245 11.12 30.7792 10.976 31.2699 10.688C31.7712 10.4 32.1605 9.99467 32.4379 9.472C32.7259 8.93867 32.8699 8.32533 32.8699 7.632C32.8699 6.93867 32.7259 6.33067 32.4379 5.808C32.1605 5.27467 31.7712 4.864 31.2699 4.576C30.7792 4.288 30.2245 4.144 29.6059 4.144ZM40.3715 11.008V12H39.3315C38.4888 12 37.8595 11.8027 37.4435 11.408C37.0275 11.0027 36.8195 10.3253 36.8195 9.376V4.24H35.4915V3.264H36.8195V1.056H37.9555V3.264H40.3555V4.24H37.9555V9.392C37.9555 10.0107 38.0675 10.4373 38.2915 10.672C38.5155 10.896 38.9102 11.008 39.4755 11.008H40.3715ZM46.584 3.104C47.5973 3.104 48.4187 3.42933 49.048 4.08C49.688 4.72 50.008 5.664 50.008 6.912V12H48.904V6.992C48.904 6.04267 48.664 5.31733 48.184 4.816C47.704 4.304 47.048 4.048 46.216 4.048C45.3413 4.048 44.6427 4.33067 44.12 4.896C43.608 5.45067 43.352 6.272 43.352 7.36V12H42.216V0.16H43.352V5.408C43.576 4.66133 43.9813 4.09067 44.568 3.696C45.1547 3.30133 45.8267 3.104 46.584 3.104ZM53.5082 5.072C53.7643 4.44267 54.1749 3.95733 54.7403 3.616C55.3056 3.27467 55.9936 3.104 56.8043 3.104V4.32H56.4363C55.5936 4.32 54.8949 4.54933 54.3403 5.008C53.7856 5.456 53.5082 6.192 53.5082 7.216V12H52.3723V3.264H53.5082V5.072ZM62.2461 3.152C63.0781 3.152 63.8195 3.33333 64.4701 3.696C65.1315 4.048 65.6488 4.56533 66.0221 5.248C66.3955 5.92 66.5821 6.71467 66.5821 7.632C66.5821 8.54933 66.3955 9.344 66.0221 10.016C65.6488 10.688 65.1315 11.2053 64.4701 11.568C63.8195 11.9307 63.0781 12.112 62.2461 12.112C61.4141 12.112 60.6675 11.9307 60.0061 11.568C59.3448 11.2053 58.8221 10.688 58.4381 10.016C58.0648 9.33333 57.8781 8.53867 57.8781 7.632C57.8781 6.71467 58.0648 5.92 58.4381 5.248C58.8221 4.56533 59.3448 4.048 60.0061 3.696C60.6675 3.33333 61.4141 3.152 62.2461 3.152ZM62.2461 4.128C61.6701 4.128 61.1368 4.256 60.6461 4.512C60.1555 4.768 59.7608 5.16267 59.4621 5.696C59.1635 6.21867 59.0141 6.864 59.0141 7.632C59.0141 8.4 59.1635 9.04533 59.4621 9.568C59.7608 10.0907 60.1555 10.48 60.6461 10.736C61.1368 10.992 61.6701 11.12 62.2461 11.12C62.8115 11.12 63.3341 10.992 63.8141 10.736C64.3048 10.48 64.6995 10.0907 64.9981 9.568C65.2968 9.04533 65.4461 8.4 65.4461 7.632C65.4461 6.864 65.2968 6.21867 64.9981 5.696C64.6995 5.16267 64.3048 4.768 63.8141 4.512C63.3341 4.256 62.8115 4.128 62.2461 4.128ZM72.543 3.152C73.375 3.152 74.1163 3.33333 74.767 3.696C75.4283 4.048 75.9457 4.56533 76.319 5.248C76.6923 5.92 76.879 6.71467 76.879 7.632C76.879 8.54933 76.6923 9.344 76.319 10.016C75.9457 10.688 75.4283 11.2053 74.767 11.568C74.1163 11.9307 73.375 12.112 72.543 12.112C71.711 12.112 70.9643 11.9307 70.303 11.568C69.6417 11.2053 69.119 10.688 68.735 10.016C68.3617 9.33333 68.175 8.53867 68.175 7.632C68.175 6.71467 68.3617 5.92 68.735 5.248C69.119 4.56533 69.6417 4.048 70.303 3.696C70.9643 3.33333 71.711 3.152 72.543 3.152ZM72.543 4.128C71.967 4.128 71.4337 4.256 70.943 4.512C70.4523 4.768 70.0577 5.16267 69.759 5.696C69.4603 6.21867 69.311 6.864 69.311 7.632C69.311 8.4 69.4603 9.04533 69.759 9.568C70.0577 10.0907 70.4523 10.48 70.943 10.736C71.4337 10.992 71.967 11.12 72.543 11.12C73.1083 11.12 73.631 10.992 74.111 10.736C74.6017 10.48 74.9963 10.0907 75.295 9.568C75.5937 9.04533 75.743 8.4 75.743 7.632C75.743 6.864 75.5937 6.21867 75.295 5.696C74.9963 5.16267 74.6017 4.768 74.111 4.512C73.631 4.256 73.1083 4.128 72.543 4.128ZM89.4959 3.104C90.4985 3.104 91.3092 3.42933 91.9279 4.08C92.5572 4.72 92.8719 5.664 92.8719 6.912V12H91.7519V6.992C91.7519 6.05333 91.5225 5.33333 91.0639 4.832C90.6159 4.33067 89.9972 4.08 89.2079 4.08C88.3652 4.08 87.6932 4.35733 87.1919 4.912C86.6905 5.46667 86.4399 6.28267 86.4399 7.36V12H85.3359V6.992C85.3359 6.05333 85.1065 5.33333 84.6479 4.832C84.1999 4.33067 83.5812 4.08 82.7919 4.08C81.9492 4.08 81.2772 4.35733 80.7759 4.912C80.2745 5.46667 80.0239 6.28267 80.0239 7.36V12H78.8879V3.264H80.0239V5.344C80.2372 4.608 80.6212 4.05333 81.1759 3.68C81.7412 3.296 82.3919 3.104 83.1279 3.104C83.8959 3.104 84.5572 3.30667 85.1119 3.712C85.6665 4.11733 86.0505 4.71467 86.2639 5.504C86.4985 4.72533 86.9092 4.13333 87.4959 3.728C88.0825 3.312 88.7492 3.104 89.4959 3.104Z" fill="#B0B0B0"/>
</svg>
