<svg width="88" height="14" viewBox="0 0 88 14" fill="none" xmlns="http://www.w3.org/2000/svg">
<path d="M0.56 10.568V9.032L6.176 1.608H8.128V8.968H9.712V10.568H8.128V13H6.288V10.568H0.56ZM6.416 3.784L2.448 8.968H6.416V3.784Z" fill="#152C5B"/>
<path d="M19.4965 12.008V13H18.4565C17.6138 13 16.9845 12.8027 16.5685 12.408C16.1525 12.0027 15.9445 11.3253 15.9445 10.376V5.24H14.6165V4.264H15.9445V2.056H17.0805V4.264H19.4805V5.24H17.0805V10.392C17.0805 11.0107 17.1925 11.4373 17.4165 11.672C17.6405 11.896 18.0352 12.008 18.6005 12.008H19.4965ZM25.149 12.184C25.9383 12.184 26.5997 11.9867 27.133 11.592C27.6663 11.1973 27.9863 10.664 28.093 9.992H29.277C29.117 10.92 28.6743 11.672 27.949 12.248C27.2237 12.824 26.3063 13.112 25.197 13.112C24.365 13.112 23.6237 12.936 22.973 12.584C22.333 12.2213 21.8317 11.704 21.469 11.032C21.1063 10.3493 20.925 9.54933 20.925 8.632C20.925 7.71467 21.1063 6.92 21.469 6.248C21.8317 5.56533 22.333 5.048 22.973 4.696C23.6237 4.33333 24.365 4.152 25.197 4.152C26.0503 4.152 26.7863 4.33333 27.405 4.696C28.0343 5.048 28.509 5.52267 28.829 6.12C29.1597 6.71733 29.325 7.368 29.325 8.072C29.325 8.37067 29.3037 8.64267 29.261 8.888H22.029C22.0397 9.624 22.189 10.2427 22.477 10.744C22.7757 11.2347 23.1597 11.5973 23.629 11.832C24.0983 12.0667 24.605 12.184 25.149 12.184ZM25.197 5.064C24.6317 5.064 24.1143 5.18133 23.645 5.416C23.1757 5.65067 22.7917 6.01333 22.493 6.504C22.205 6.984 22.0503 7.58667 22.029 8.312H28.205C28.2477 7.59733 28.1303 6.99467 27.853 6.504C27.5757 6.01333 27.2023 5.65067 26.733 5.416C26.2637 5.18133 25.7517 5.064 25.197 5.064ZM32.477 1.16V13H31.341V1.16H32.477ZM38.7115 12.184C39.5008 12.184 40.1622 11.9867 40.6955 11.592C41.2288 11.1973 41.5488 10.664 41.6555 9.992H42.8395C42.6795 10.92 42.2368 11.672 41.5115 12.248C40.7862 12.824 39.8688 13.112 38.7595 13.112C37.9275 13.112 37.1862 12.936 36.5355 12.584C35.8955 12.2213 35.3942 11.704 35.0315 11.032C34.6688 10.3493 34.4875 9.54933 34.4875 8.632C34.4875 7.71467 34.6688 6.92 35.0315 6.248C35.3942 5.56533 35.8955 5.048 36.5355 4.696C37.1862 4.33333 37.9275 4.152 38.7595 4.152C39.6128 4.152 40.3488 4.33333 40.9675 4.696C41.5968 5.048 42.0715 5.52267 42.3915 6.12C42.7222 6.71733 42.8875 7.368 42.8875 8.072C42.8875 8.37067 42.8662 8.64267 42.8235 8.888H35.5915C35.6022 9.624 35.7515 10.2427 36.0395 10.744C36.3382 11.2347 36.7222 11.5973 37.1915 11.832C37.6608 12.0667 38.1675 12.184 38.7115 12.184ZM38.7595 5.064C38.1942 5.064 37.6768 5.18133 37.2075 5.416C36.7382 5.65067 36.3542 6.01333 36.0555 6.504C35.7675 6.984 35.6128 7.58667 35.5915 8.312H41.7675C41.8102 7.59733 41.6928 6.99467 41.4155 6.504C41.1382 6.01333 40.7648 5.65067 40.2955 5.416C39.8262 5.18133 39.3142 5.064 38.7595 5.064ZM48.1355 11.736L51.0635 4.264H52.2795L48.7595 13H47.4795L43.9595 4.264H45.1755L48.1355 11.736ZM53.5069 1.672C53.5069 1.43733 53.5815 1.25067 53.7309 1.112C53.8909 0.973333 54.0935 0.903999 54.3389 0.903999C54.5842 0.903999 54.7815 0.973333 54.9309 1.112C55.0802 1.25067 55.1549 1.43733 55.1549 1.672C55.1549 1.896 55.0802 2.07733 54.9309 2.216C54.7815 2.35467 54.5842 2.424 54.3389 2.424C54.0935 2.424 53.8909 2.35467 53.7309 2.216C53.5815 2.07733 53.5069 1.896 53.5069 1.672ZM54.8989 4.264V13H53.7629V4.264H54.8989ZM59.9654 4.152C60.9147 4.152 61.6774 4.40267 62.2534 4.904C62.8294 5.40533 63.1814 6.08267 63.3094 6.936H62.2374C62.1734 6.37067 61.9387 5.90667 61.5334 5.544C61.1387 5.17067 60.6054 4.984 59.9334 4.984C59.3574 4.984 58.904 5.128 58.5734 5.416C58.2534 5.69333 58.0934 6.06667 58.0934 6.536C58.0934 6.888 58.1947 7.17067 58.3974 7.384C58.6107 7.59733 58.872 7.76267 59.1814 7.88C59.4907 7.98667 59.9067 8.09867 60.4294 8.216C61.0694 8.36533 61.5814 8.52 61.9654 8.68C62.36 8.82933 62.696 9.06933 62.9734 9.4C63.2507 9.73067 63.3894 10.1787 63.3894 10.744C63.3894 11.4373 63.128 12.008 62.6054 12.456C62.0934 12.8933 61.4107 13.112 60.5574 13.112C59.5547 13.112 58.7334 12.8667 58.0934 12.376C57.4534 11.8747 57.0747 11.192 56.9574 10.328H58.0454C58.1094 10.904 58.36 11.3733 58.7974 11.736C59.2347 12.0987 59.8267 12.28 60.5734 12.28C61.128 12.28 61.56 12.136 61.8694 11.848C62.1787 11.56 62.3334 11.1867 62.3334 10.728C62.3334 10.3547 62.2267 10.056 62.0134 9.832C61.8 9.608 61.5334 9.44267 61.2134 9.336C60.904 9.21867 60.4774 9.096 59.9334 8.968C59.304 8.81867 58.7974 8.66933 58.4134 8.52C58.04 8.37067 57.72 8.14133 57.4534 7.832C57.1867 7.512 57.0534 7.08 57.0534 6.536C57.0534 5.82133 57.3147 5.24533 57.8374 4.808C58.36 4.37067 59.0694 4.152 59.9654 4.152ZM65.1788 1.672C65.1788 1.43733 65.2534 1.25067 65.4028 1.112C65.5628 0.973333 65.7654 0.903999 66.0108 0.903999C66.2561 0.903999 66.4534 0.973333 66.6028 1.112C66.7521 1.25067 66.8268 1.43733 66.8268 1.672C66.8268 1.896 66.7521 2.07733 66.6028 2.216C66.4534 2.35467 66.2561 2.424 66.0108 2.424C65.7654 2.424 65.5628 2.35467 65.4028 2.216C65.2534 2.07733 65.1788 1.896 65.1788 1.672ZM66.5707 4.264V13H65.4348V4.264H66.5707ZM72.9493 4.152C73.7813 4.152 74.5226 4.33333 75.1733 4.696C75.8346 5.048 76.3519 5.56533 76.7253 6.248C77.0986 6.92 77.2853 7.71467 77.2853 8.632C77.2853 9.54933 77.0986 10.344 76.7253 11.016C76.3519 11.688 75.8346 12.2053 75.1733 12.568C74.5226 12.9307 73.7813 13.112 72.9493 13.112C72.1173 13.112 71.3706 12.9307 70.7093 12.568C70.0479 12.2053 69.5253 11.688 69.1413 11.016C68.7679 10.3333 68.5813 9.53867 68.5813 8.632C68.5813 7.71467 68.7679 6.92 69.1413 6.248C69.5253 5.56533 70.0479 5.048 70.7093 4.696C71.3706 4.33333 72.1173 4.152 72.9493 4.152ZM72.9493 5.128C72.3733 5.128 71.8399 5.256 71.3493 5.512C70.8586 5.768 70.4639 6.16267 70.1653 6.696C69.8666 7.21867 69.7173 7.864 69.7173 8.632C69.7173 9.4 69.8666 10.0453 70.1653 10.568C70.4639 11.0907 70.8586 11.48 71.3493 11.736C71.8399 11.992 72.3733 12.12 72.9493 12.12C73.5146 12.12 74.0373 11.992 74.5173 11.736C75.0079 11.48 75.4026 11.0907 75.7013 10.568C75.9999 10.0453 76.1493 9.4 76.1493 8.632C76.1493 7.864 75.9999 7.21867 75.7013 6.696C75.4026 6.16267 75.0079 5.768 74.5173 5.512C74.0373 5.256 73.5146 5.128 72.9493 5.128ZM83.6621 4.104C84.6755 4.104 85.4968 4.42933 86.1261 5.08C86.7661 5.72 87.0861 6.664 87.0861 7.912V13H85.9821V7.992C85.9821 7.04267 85.7421 6.31733 85.2621 5.816C84.7821 5.304 84.1261 5.048 83.2941 5.048C82.4195 5.048 81.7208 5.33067 81.1981 5.896C80.6861 6.45067 80.4301 7.272 80.4301 8.36V13H79.2941V4.264H80.4301V6.408C80.6541 5.66133 81.0595 5.09067 81.6461 4.696C82.2328 4.30133 82.9048 4.104 83.6621 4.104Z" fill="#B0B0B0"/>
</svg>
