<svg width="87" height="13" viewBox="0 0 87 13" fill="none" xmlns="http://www.w3.org/2000/svg">
<path d="M7.656 2.144H2.072V5.504C2.328 5.17333 2.69067 4.912 3.16 4.72C3.62933 4.51733 4.14667 4.416 4.712 4.416C5.50133 4.416 6.15733 4.58667 6.68 4.928C7.20267 5.25867 7.58667 5.70133 7.832 6.256C8.088 6.81067 8.216 7.424 8.216 8.096C8.216 9.28 7.88533 10.24 7.224 10.976C6.56267 11.7013 5.60267 12.064 4.344 12.064C3.16 12.064 2.20533 11.7493 1.48 11.12C0.754667 10.4907 0.36 9.65333 0.296 8.608H2.088C2.184 9.184 2.41867 9.63733 2.792 9.968C3.176 10.2987 3.66133 10.464 4.248 10.464C4.97333 10.464 5.51733 10.2453 5.88 9.808C6.24267 9.37067 6.424 8.78933 6.424 8.064C6.424 7.38133 6.23733 6.848 5.864 6.464C5.49067 6.06933 4.95733 5.872 4.264 5.872C3.77333 5.872 3.34133 5.97867 2.968 6.192C2.60533 6.40533 2.33867 6.688 2.168 7.04H0.392V0.528H7.656V2.144Z" fill="#152C5B"/>
<path d="M19.0286 3.152C19.8286 3.152 20.5326 3.33333 21.1406 3.696C21.7593 4.048 22.2393 4.56533 22.5806 5.248C22.9326 5.92 23.1086 6.71467 23.1086 7.632C23.1086 8.53867 22.9326 9.33333 22.5806 10.016C22.2393 10.688 21.7593 11.2053 21.1406 11.568C20.522 11.9307 19.818 12.112 19.0286 12.112C18.1326 12.112 17.3753 11.8827 16.7566 11.424C16.138 10.9653 15.7113 10.3573 15.4766 9.6V12H14.3566V0.16H15.4766V5.664C15.7113 4.90667 16.138 4.29867 16.7566 3.84C17.3753 3.38133 18.1326 3.152 19.0286 3.152ZM18.7246 4.144C18.106 4.144 17.546 4.288 17.0446 4.576C16.554 4.864 16.17 5.27467 15.8926 5.808C15.6153 6.33067 15.4766 6.93867 15.4766 7.632C15.4766 8.32533 15.6153 8.93867 15.8926 9.472C16.17 9.99467 16.554 10.4 17.0446 10.688C17.546 10.976 18.106 11.12 18.7246 11.12C19.7166 11.12 20.506 10.8107 21.0926 10.192C21.6793 9.56267 21.9726 8.70933 21.9726 7.632C21.9726 6.55467 21.6793 5.70667 21.0926 5.088C20.506 4.45867 19.7166 4.144 18.7246 4.144ZM28.9303 11.184C29.7196 11.184 30.3809 10.9867 30.9143 10.592C31.4476 10.1973 31.7676 9.664 31.8743 8.992H33.0583C32.8983 9.92 32.4556 10.672 31.7303 11.248C31.0049 11.824 30.0876 12.112 28.9783 12.112C28.1463 12.112 27.4049 11.936 26.7543 11.584C26.1143 11.2213 25.6129 10.704 25.2503 10.032C24.8876 9.34933 24.7063 8.54933 24.7063 7.632C24.7063 6.71467 24.8876 5.92 25.2503 5.248C25.6129 4.56533 26.1143 4.048 26.7543 3.696C27.4049 3.33333 28.1463 3.152 28.9783 3.152C29.8316 3.152 30.5676 3.33333 31.1863 3.696C31.8156 4.048 32.2903 4.52267 32.6103 5.12C32.9409 5.71733 33.1063 6.368 33.1063 7.072C33.1063 7.37067 33.0849 7.64267 33.0423 7.888H25.8103C25.8209 8.624 25.9703 9.24267 26.2582 9.744C26.5569 10.2347 26.9409 10.5973 27.4103 10.832C27.8796 11.0667 28.3863 11.184 28.9303 11.184ZM28.9783 4.064C28.4129 4.064 27.8956 4.18133 27.4263 4.416C26.9569 4.65067 26.5729 5.01333 26.2743 5.504C25.9863 5.984 25.8316 6.58667 25.8103 7.312H31.9862C32.0289 6.59733 31.9116 5.99467 31.6343 5.504C31.3569 5.01333 30.9836 4.65067 30.5143 4.416C30.0449 4.18133 29.5329 4.064 28.9783 4.064ZM38.8023 3.152C39.6876 3.152 40.4396 3.38133 41.0583 3.84C41.6876 4.29867 42.1143 4.90667 42.3383 5.664V0.16H43.4583V12H42.3383V9.6C42.1143 10.3573 41.6876 10.9653 41.0583 11.424C40.4396 11.8827 39.6876 12.112 38.8023 12.112C38.0129 12.112 37.3036 11.9307 36.6743 11.568C36.0556 11.2053 35.5703 10.688 35.2183 10.016C34.8769 9.33333 34.7063 8.53867 34.7063 7.632C34.7063 6.71467 34.8769 5.92 35.2183 5.248C35.5703 4.56533 36.0556 4.048 36.6743 3.696C37.2929 3.33333 38.0023 3.152 38.8023 3.152ZM39.0903 4.144C38.1089 4.144 37.3196 4.45867 36.7223 5.088C36.1356 5.70667 35.8423 6.55467 35.8423 7.632C35.8423 8.70933 36.1356 9.56267 36.7223 10.192C37.3196 10.8107 38.1089 11.12 39.0903 11.12C39.7089 11.12 40.2636 10.976 40.7543 10.688C41.2556 10.4 41.6449 9.99467 41.9223 9.472C42.2103 8.93867 42.3542 8.32533 42.3542 7.632C42.3542 6.93867 42.2103 6.33067 41.9223 5.808C41.6449 5.27467 41.2556 4.864 40.7543 4.576C40.2636 4.288 39.7089 4.144 39.0903 4.144ZM47.0239 5.072C47.2799 4.44267 47.6905 3.95733 48.2559 3.616C48.8212 3.27467 49.5092 3.104 50.3199 3.104V4.32H49.9519C49.1092 4.32 48.4105 4.54933 47.8559 5.008C47.3012 5.456 47.0239 6.192 47.0239 7.216V12H45.8879V3.264H47.0239V5.072ZM55.7618 3.152C56.5938 3.152 57.3351 3.33333 57.9858 3.696C58.6471 4.048 59.1644 4.56533 59.5378 5.248C59.9111 5.92 60.0978 6.71467 60.0978 7.632C60.0978 8.54933 59.9111 9.344 59.5378 10.016C59.1644 10.688 58.6471 11.2053 57.9858 11.568C57.3351 11.9307 56.5938 12.112 55.7618 12.112C54.9298 12.112 54.1831 11.9307 53.5218 11.568C52.8604 11.2053 52.3378 10.688 51.9538 10.016C51.5804 9.33333 51.3938 8.53867 51.3938 7.632C51.3938 6.71467 51.5804 5.92 51.9538 5.248C52.3378 4.56533 52.8604 4.048 53.5218 3.696C54.1831 3.33333 54.9298 3.152 55.7618 3.152ZM55.7618 4.128C55.1858 4.128 54.6524 4.256 54.1618 4.512C53.6711 4.768 53.2764 5.16267 52.9778 5.696C52.6791 6.21867 52.5298 6.864 52.5298 7.632C52.5298 8.4 52.6791 9.04533 52.9778 9.568C53.2764 10.0907 53.6711 10.48 54.1618 10.736C54.6524 10.992 55.1858 11.12 55.7618 11.12C56.3271 11.12 56.8498 10.992 57.3298 10.736C57.8204 10.48 58.2151 10.0907 58.5138 9.568C58.8124 9.04533 58.9618 8.4 58.9618 7.632C58.9618 6.864 58.8124 6.21867 58.5138 5.696C58.2151 5.16267 57.8204 4.768 57.3298 4.512C56.8498 4.256 56.3271 4.128 55.7618 4.128ZM66.0586 3.152C66.8906 3.152 67.632 3.33333 68.2826 3.696C68.944 4.048 69.4613 4.56533 69.8346 5.248C70.208 5.92 70.3946 6.71467 70.3946 7.632C70.3946 8.54933 70.208 9.344 69.8346 10.016C69.4613 10.688 68.944 11.2053 68.2826 11.568C67.632 11.9307 66.8906 12.112 66.0586 12.112C65.2266 12.112 64.48 11.9307 63.8186 11.568C63.1573 11.2053 62.6346 10.688 62.2506 10.016C61.8773 9.33333 61.6906 8.53867 61.6906 7.632C61.6906 6.71467 61.8773 5.92 62.2506 5.248C62.6346 4.56533 63.1573 4.048 63.8186 3.696C64.48 3.33333 65.2266 3.152 66.0586 3.152ZM66.0586 4.128C65.4826 4.128 64.9493 4.256 64.4586 4.512C63.968 4.768 63.5733 5.16267 63.2746 5.696C62.976 6.21867 62.8266 6.864 62.8266 7.632C62.8266 8.4 62.976 9.04533 63.2746 9.568C63.5733 10.0907 63.968 10.48 64.4586 10.736C64.9493 10.992 65.4826 11.12 66.0586 11.12C66.624 11.12 67.1466 10.992 67.6266 10.736C68.1173 10.48 68.512 10.0907 68.8106 9.568C69.1093 9.04533 69.2586 8.4 69.2586 7.632C69.2586 6.864 69.1093 6.21867 68.8106 5.696C68.512 5.16267 68.1173 4.768 67.6266 4.512C67.1466 4.256 66.624 4.128 66.0586 4.128ZM83.0115 3.104C84.0142 3.104 84.8248 3.42933 85.4435 4.08C86.0728 4.72 86.3875 5.664 86.3875 6.912V12H85.2675V6.992C85.2675 6.05333 85.0382 5.33333 84.5795 4.832C84.1315 4.33067 83.5128 4.08 82.7235 4.08C81.8808 4.08 81.2088 4.35733 80.7075 4.912C80.2062 5.46667 79.9555 6.28267 79.9555 7.36V12H78.8515V6.992C78.8515 6.05333 78.6222 5.33333 78.1635 4.832C77.7155 4.33067 77.0968 4.08 76.3075 4.08C75.4648 4.08 74.7928 4.35733 74.2915 4.912C73.7902 5.46667 73.5395 6.28267 73.5395 7.36V12H72.4035V3.264H73.5395V5.344C73.7528 4.608 74.1368 4.05333 74.6915 3.68C75.2568 3.296 75.9075 3.104 76.6435 3.104C77.4115 3.104 78.0728 3.30667 78.6275 3.712C79.1822 4.11733 79.5662 4.71467 79.7795 5.504C80.0142 4.72533 80.4248 4.13333 81.0115 3.728C81.5982 3.312 82.2648 3.104 83.0115 3.104Z" fill="#B0B0B0"/>
</svg>
