<svg width="92" height="18" viewBox="0 0 92 18" fill="none" xmlns="http://www.w3.org/2000/svg">
<path d="M7.696 3.016L3.488 13H1.568L5.84 3.224H0.24V1.64H7.696V3.016Z" fill="#152C5B"/>
<path d="M21.0176 4.264V13H19.8976V10.84C19.6736 11.5973 19.2683 12.1733 18.6816 12.568C18.095 12.9627 17.423 13.16 16.6656 13.16C15.6416 13.16 14.8096 12.84 14.1696 12.2C13.5403 11.5493 13.2256 10.6 13.2256 9.352V4.264H14.3456V9.256C14.3456 10.216 14.5856 10.952 15.0656 11.464C15.5456 11.9653 16.2016 12.216 17.0336 12.216C17.9083 12.216 18.6016 11.9387 19.1136 11.384C19.6363 10.8187 19.8976 9.992 19.8976 8.904V4.264H21.0176ZM27.834 4.104C28.8473 4.104 29.6687 4.42933 30.298 5.08C30.938 5.72 31.258 6.664 31.258 7.912V13H30.154V7.992C30.154 7.04267 29.914 6.31733 29.434 5.816C28.954 5.304 28.298 5.048 27.466 5.048C26.5913 5.048 25.8927 5.33067 25.37 5.896C24.858 6.45067 24.602 7.272 24.602 8.36V13H23.466V4.264H24.602V6.408C24.826 5.66133 25.2313 5.09067 25.818 4.696C26.4047 4.30133 27.0767 4.104 27.834 4.104ZM33.3663 1.672C33.3663 1.43733 33.4409 1.25067 33.5903 1.112C33.7503 0.973333 33.9529 0.903999 34.1983 0.903999C34.4436 0.903999 34.6409 0.973333 34.7903 1.112C34.9396 1.25067 35.0143 1.43733 35.0143 1.672C35.0143 1.896 34.9396 2.07733 34.7903 2.216C34.6409 2.35467 34.4436 2.424 34.1983 2.424C33.9529 2.424 33.7503 2.35467 33.5903 2.216C33.4409 2.07733 33.3663 1.896 33.3663 1.672ZM34.7582 4.264V13H33.6223V4.264H34.7582ZM41.1528 12.008V13H40.1128C39.2701 13 38.6408 12.8027 38.2248 12.408C37.8088 12.0027 37.6008 11.3253 37.6008 10.376V5.24H36.2728V4.264H37.6008V2.056H38.7368V4.264H41.1368V5.24H38.7368V10.392C38.7368 11.0107 38.8488 11.4373 39.0728 11.672C39.2968 11.896 39.6914 12.008 40.2568 12.008H41.1528ZM48.2895 6.072C48.5455 5.44267 48.9562 4.95733 49.5215 4.616C50.0868 4.27467 50.7748 4.104 51.5855 4.104V5.32H51.2175C50.3748 5.32 49.6762 5.54933 49.1215 6.008C48.5668 6.456 48.2895 7.192 48.2895 8.216V13H47.1535V4.264H48.2895V6.072ZM56.8834 12.184C57.6727 12.184 58.334 11.9867 58.8674 11.592C59.4007 11.1973 59.7207 10.664 59.8274 9.992H61.0114C60.8514 10.92 60.4087 11.672 59.6834 12.248C58.958 12.824 58.0407 13.112 56.9314 13.112C56.0994 13.112 55.358 12.936 54.7074 12.584C54.0674 12.2213 53.566 11.704 53.2034 11.032C52.8407 10.3493 52.6594 9.54933 52.6594 8.632C52.6594 7.71467 52.8407 6.92 53.2034 6.248C53.566 5.56533 54.0674 5.048 54.7074 4.696C55.358 4.33333 56.0994 4.152 56.9314 4.152C57.7847 4.152 58.5207 4.33333 59.1394 4.696C59.7687 5.048 60.2434 5.52267 60.5634 6.12C60.894 6.71733 61.0594 7.368 61.0594 8.072C61.0594 8.37067 61.038 8.64267 60.9954 8.888H53.7634C53.774 9.624 53.9234 10.2427 54.2114 10.744C54.51 11.2347 54.894 11.5973 55.3634 11.832C55.8327 12.0667 56.3394 12.184 56.8834 12.184ZM56.9314 5.064C56.366 5.064 55.8487 5.18133 55.3794 5.416C54.91 5.65067 54.526 6.01333 54.2274 6.504C53.9394 6.984 53.7847 7.58667 53.7634 8.312H59.9394C59.982 7.59733 59.8647 6.99467 59.5874 6.504C59.31 6.01333 58.9367 5.65067 58.4674 5.416C57.998 5.18133 57.486 5.064 56.9314 5.064ZM66.7554 4.152C67.6407 4.152 68.3927 4.38133 69.0114 4.84C69.6407 5.29867 70.0727 5.90667 70.3074 6.664V4.264H71.4114V13H70.3074V10.6C70.0727 11.3573 69.6407 11.9653 69.0114 12.424C68.3927 12.8827 67.6407 13.112 66.7554 13.112C65.966 13.112 65.2567 12.9307 64.6274 12.568C64.0087 12.2053 63.5234 11.688 63.1714 11.016C62.83 10.3333 62.6594 9.53867 62.6594 8.632C62.6594 7.71467 62.83 6.92 63.1714 6.248C63.5234 5.56533 64.0087 5.048 64.6274 4.696C65.246 4.33333 65.9554 4.152 66.7554 4.152ZM67.0434 5.144C66.062 5.144 65.2727 5.45867 64.6754 6.088C64.0887 6.70667 63.7954 7.55467 63.7954 8.632C63.7954 9.70933 64.0887 10.5627 64.6754 11.192C65.2727 11.8107 66.062 12.12 67.0434 12.12C67.662 12.12 68.2167 11.976 68.7074 11.688C69.2087 11.4 69.598 10.9947 69.8754 10.472C70.1634 9.93867 70.3074 9.32533 70.3074 8.632C70.3074 7.93867 70.1634 7.33067 69.8754 6.808C69.598 6.27467 69.2087 5.864 68.7074 5.576C68.2167 5.288 67.662 5.144 67.0434 5.144ZM77.521 4.152C78.4063 4.152 79.1583 4.38133 79.777 4.84C80.4063 5.29867 80.833 5.90667 81.057 6.664V1.16H82.177V13H81.057V10.6C80.833 11.3573 80.4063 11.9653 79.777 12.424C79.1583 12.8827 78.4063 13.112 77.521 13.112C76.7317 13.112 76.0223 12.9307 75.393 12.568C74.7743 12.2053 74.289 11.688 73.937 11.016C73.5957 10.3333 73.425 9.53867 73.425 8.632C73.425 7.71467 73.5957 6.92 73.937 6.248C74.289 5.56533 74.7743 5.048 75.393 4.696C76.0117 4.33333 76.721 4.152 77.521 4.152ZM77.809 5.144C76.8277 5.144 76.0383 5.45867 75.441 6.088C74.8543 6.70667 74.561 7.55467 74.561 8.632C74.561 9.70933 74.8543 10.5627 75.441 11.192C76.0383 11.8107 76.8277 12.12 77.809 12.12C78.4277 12.12 78.9823 11.976 79.473 11.688C79.9743 11.4 80.3637 10.9947 80.641 10.472C80.929 9.93867 81.073 9.32533 81.073 8.632C81.073 7.93867 80.929 7.33067 80.641 6.808C80.3637 6.27467 79.9743 5.864 79.473 5.576C78.9823 5.288 78.4277 5.144 77.809 5.144ZM84.8466 4.264L87.8866 11.544L90.6866 4.264H91.9346L86.7986 17.128H85.5186L87.2786 12.904L83.5986 4.264H84.8466Z" fill="#B0B0B0"/>
</svg>
