<svg width="71" height="21" viewBox="0 0 71 21" fill="none" xmlns="http://www.w3.org/2000/svg">
<path d="M0.208 6.416V4.704H3.824V16H1.904V6.416H0.208ZM5.73825 10.272C5.73825 12.0747 6.05825 13.488 6.69825 14.512C7.33825 15.5253 8.40492 16.032 9.89825 16.032C11.3916 16.032 12.4583 15.52 13.0983 14.496C13.7383 13.472 14.0583 12.064 14.0583 10.272C14.0583 8.49067 13.7383 7.09333 13.0983 6.08C12.4583 5.056 11.3916 4.544 9.89825 4.544C8.40492 4.544 7.33825 5.05067 6.69825 6.064C6.05825 7.07733 5.73825 8.48 5.73825 10.272ZM12.2343 10.272C12.2343 11.5733 12.0743 12.5707 11.7543 13.264C11.4343 13.9573 10.8156 14.304 9.89825 14.304C8.97025 14.304 8.34625 13.9573 8.02625 13.264C7.70625 12.5707 7.54625 11.5733 7.54625 10.272C7.54625 8.98133 7.70625 7.99467 8.02625 7.312C8.34625 6.62933 8.97025 6.288 9.89825 6.288C10.8156 6.288 11.4343 6.63467 11.7543 7.328C12.0743 8.01067 12.2343 8.992 12.2343 10.272Z" fill="#152C5B"/>
<path d="M30.8553 7.104C31.8579 7.104 32.6686 7.42933 33.2873 8.08C33.9166 8.72 34.2313 9.664 34.2313 10.912V16H33.1113V10.992C33.1113 10.0533 32.8819 9.33333 32.4233 8.832C31.9753 8.33067 31.3566 8.08 30.5673 8.08C29.7246 8.08 29.0526 8.35733 28.5513 8.912C28.0499 9.46667 27.7993 10.2827 27.7993 11.36V16H26.6953V10.992C26.6953 10.0533 26.4659 9.33333 26.0073 8.832C25.5593 8.33067 24.9406 8.08 24.1513 8.08C23.3086 8.08 22.6366 8.35733 22.1353 8.912C21.6339 9.46667 21.3832 10.2827 21.3832 11.36V16H20.2473V7.264H21.3832V9.344C21.5966 8.608 21.9806 8.05333 22.5353 7.68C23.1006 7.296 23.7513 7.104 24.4873 7.104C25.2553 7.104 25.9166 7.30667 26.4713 7.712C27.0259 8.11733 27.4099 8.71467 27.6233 9.504C27.8579 8.72533 28.2686 8.13333 28.8553 7.728C29.4419 7.312 30.1086 7.104 30.8553 7.104ZM41.263 7.152C42.063 7.152 42.767 7.33333 43.375 7.696C43.9937 8.048 44.4737 8.56533 44.815 9.248C45.167 9.92 45.343 10.7147 45.343 11.632C45.343 12.5387 45.167 13.3333 44.815 14.016C44.4737 14.688 43.9937 15.2053 43.375 15.568C42.7563 15.9307 42.0523 16.112 41.263 16.112C40.367 16.112 39.6097 15.8827 38.991 15.424C38.3723 14.9653 37.9457 14.3573 37.711 13.6V16H36.591V4.16H37.711V9.664C37.9457 8.90667 38.3723 8.29867 38.991 7.84C39.6097 7.38133 40.367 7.152 41.263 7.152ZM40.959 8.144C40.3403 8.144 39.7803 8.288 39.279 8.576C38.7883 8.864 38.4043 9.27467 38.127 9.808C37.8497 10.3307 37.711 10.9387 37.711 11.632C37.711 12.3253 37.8497 12.9387 38.127 13.472C38.4043 13.9947 38.7883 14.4 39.279 14.688C39.7803 14.976 40.3403 15.12 40.959 15.12C41.951 15.12 42.7403 14.8107 43.327 14.192C43.9137 13.5627 44.207 12.7093 44.207 11.632C44.207 10.5547 43.9137 9.70667 43.327 9.088C42.7403 8.45867 41.951 8.144 40.959 8.144ZM52.0286 7.152C52.8286 7.152 53.5326 7.33333 54.1406 7.696C54.7593 8.048 55.2393 8.56533 55.5806 9.248C55.9326 9.92 56.1086 10.7147 56.1086 11.632C56.1086 12.5387 55.9326 13.3333 55.5806 14.016C55.2393 14.688 54.7593 15.2053 54.1406 15.568C53.522 15.9307 52.818 16.112 52.0286 16.112C51.1326 16.112 50.3753 15.8827 49.7566 15.424C49.138 14.9653 48.7113 14.3573 48.4766 13.6V20.128H47.3566V7.264H48.4766V9.664C48.7113 8.90667 49.138 8.29867 49.7566 7.84C50.3753 7.38133 51.1326 7.152 52.0286 7.152ZM51.7246 8.144C51.106 8.144 50.546 8.288 50.0446 8.576C49.554 8.864 49.17 9.27467 48.8926 9.808C48.6153 10.3307 48.4766 10.9387 48.4766 11.632C48.4766 12.3253 48.6153 12.9387 48.8926 13.472C49.17 13.9947 49.554 14.4 50.0446 14.688C50.546 14.976 51.106 15.12 51.7246 15.12C52.7166 15.12 53.506 14.8107 54.0926 14.192C54.6793 13.5627 54.9726 12.7093 54.9726 11.632C54.9726 10.5547 54.6793 9.70667 54.0926 9.088C53.506 8.45867 52.7166 8.144 51.7246 8.144ZM62.6183 0.959999L58.2183 18.672H57.1303L61.5143 0.959999H62.6183ZM66.6685 7.152C67.6178 7.152 68.3805 7.40267 68.9565 7.904C69.5325 8.40533 69.8845 9.08267 70.0125 9.936H68.9405C68.8765 9.37067 68.6418 8.90667 68.2365 8.544C67.8418 8.17067 67.3085 7.984 66.6365 7.984C66.0605 7.984 65.6072 8.128 65.2765 8.416C64.9565 8.69333 64.7965 9.06667 64.7965 9.536C64.7965 9.888 64.8978 10.1707 65.1005 10.384C65.3138 10.5973 65.5752 10.7627 65.8845 10.88C66.1938 10.9867 66.6098 11.0987 67.1325 11.216C67.7725 11.3653 68.2845 11.52 68.6685 11.68C69.0632 11.8293 69.3992 12.0693 69.6765 12.4C69.9538 12.7307 70.0925 13.1787 70.0925 13.744C70.0925 14.4373 69.8312 15.008 69.3085 15.456C68.7965 15.8933 68.1138 16.112 67.2605 16.112C66.2578 16.112 65.4365 15.8667 64.7965 15.376C64.1565 14.8747 63.7778 14.192 63.6605 13.328H64.7485C64.8125 13.904 65.0632 14.3733 65.5005 14.736C65.9378 15.0987 66.5298 15.28 67.2765 15.28C67.8312 15.28 68.2632 15.136 68.5725 14.848C68.8818 14.56 69.0365 14.1867 69.0365 13.728C69.0365 13.3547 68.9298 13.056 68.7165 12.832C68.5032 12.608 68.2365 12.4427 67.9165 12.336C67.6072 12.2187 67.1805 12.096 66.6365 11.968C66.0072 11.8187 65.5005 11.6693 65.1165 11.52C64.7432 11.3707 64.4232 11.1413 64.1565 10.832C63.8898 10.512 63.7565 10.08 63.7565 9.536C63.7565 8.82133 64.0178 8.24533 64.5405 7.808C65.0632 7.37067 65.7725 7.152 66.6685 7.152Z" fill="#B0B0B0"/>
</svg>
